<svg width="17" height="15" viewBox="0 0 17 15" fill="none" xmlns="http://www.w3.org/2000/svg">
<path fill-rule="evenodd" clip-rule="evenodd" d="M16.25 7.5C16.25 7.75693 16.148 8.00334 15.9663 8.18501C15.7846 8.36669 15.5382 8.46875 15.2813 8.46875L4.05734 8.46875L8.21715 12.6266C8.30722 12.7167 8.37867 12.8236 8.42741 12.9413C8.47616 13.059 8.50125 13.1851 8.50125 13.3125C8.50125 13.4399 8.47616 13.566 8.42741 13.6837C8.37867 13.8014 8.30722 13.9083 8.21715 13.9984C8.12708 14.0884 8.02015 14.1599 7.90247 14.2086C7.78478 14.2574 7.65865 14.2825 7.53127 14.2825C7.4039 14.2825 7.27776 14.2574 7.16008 14.2086C7.0424 14.1599 6.93547 14.0884 6.8454 13.9984L1.0329 8.18588C0.942682 8.09589 0.871105 7.98899 0.822267 7.87129C0.77343 7.7536 0.748291 7.62743 0.748291 7.5C0.748291 7.37258 0.77343 7.24641 0.822267 7.12871C0.871105 7.01102 0.942682 6.90412 1.0329 6.81413L6.8454 1.00163C7.0273 0.819723 7.27402 0.717529 7.53127 0.717529C7.78853 0.717529 8.03524 0.819723 8.21715 1.00163C8.39905 1.18353 8.50125 1.43025 8.50125 1.6875C8.50125 1.94476 8.39905 2.19147 8.21715 2.37338L4.05734 6.53125L15.2813 6.53125C15.5382 6.53125 15.7846 6.63332 15.9663 6.81499C16.148 6.99667 16.25 7.24307 16.25 7.5Z" fill="white"/>
</svg>
